<svg width="77" height="55" viewBox="0 0 77 55" fill="none" xmlns="http://www.w3.org/2000/svg">
<path fill-rule="evenodd" clip-rule="evenodd" d="M60.7303 15.0137C63.4911 11.146 68.7093 6.98223 75.8133 3.51598C77.6595 2.61519 76.8266 -0.176769 74.7887 0.0810165C59.8624 1.96906 50.1879 8.50619 44.9048 18.2277C42.9399 21.8434 41.7054 25.6919 41.0479 29.6205C40.6145 32.2108 40.5 34.1548 40.5 36.4C40.5 46.4332 48.6335 54.5667 58.6666 54.5667C68.6998 54.5667 76.8333 46.4332 76.8333 36.4C76.8333 26.3668 68.57 18.2277 59.0742 18.2277C59.5752 16.8522 59.6955 16.4635 60.7303 15.0137ZM20.7637 15.0137C23.5244 11.146 28.7426 6.98223 35.8466 3.51598C37.6928 2.61519 36.8599 -0.176769 34.822 0.0810165C19.8958 1.96906 10.2212 8.50619 4.93814 18.2277C2.97321 21.8434 1.73871 25.6919 1.08127 29.6205C0.647804 32.2108 0.533302 34.1548 0.533302 36.4C0.533302 46.4332 8.66679 54.5667 18.7 54.5667C28.7331 54.5667 36.8666 46.4332 36.8666 36.4C36.8666 26.3668 28.6034 18.2277 19.1076 18.2277C19.6085 16.8522 19.7288 16.4635 20.7637 15.0137Z" fill="#8F7D6A"/>
</svg>
