<svg width="32" height="31" viewBox="0 0 32 31" fill="none" xmlns="http://www.w3.org/2000/svg">
<rect x="0.727173" width="30.3529" height="30.3529" rx="6" fill="#503217"/>
<path d="M14.1735 16.5893C14.1277 16.5893 13.1207 16.5893 12.663 16.5893C12.4189 16.5893 12.3426 16.4978 12.3426 16.2689C12.3426 15.6586 12.3426 15.0331 12.3426 14.4228C12.3426 14.1787 12.4341 14.1024 12.663 14.1024L14.1735 14.1024C14.1735 14.0566 14.1735 13.1717 14.1735 12.7597C14.1735 12.1494 14.2803 11.5697 14.5854 11.0356C14.9058 10.4864 15.3636 10.1202 15.9433 9.9066C16.3248 9.76928 16.7062 9.70825 17.1182 9.70825L18.6134 9.70825C18.827 9.70825 18.9185 9.7998 18.9185 10.0134L18.9185 11.7527C18.9185 11.9663 18.827 12.0579 18.6134 12.0579C18.2014 12.0579 17.7895 12.0579 17.3775 12.0732C16.9656 12.0732 16.752 12.2715 16.752 12.6987C16.7367 13.1564 16.752 13.5989 16.752 14.0719L18.5218 14.0719C18.766 14.0719 18.8575 14.1634 18.8575 14.4075L18.8575 16.2537C18.8575 16.4978 18.7812 16.5741 18.5218 16.5741C17.9726 16.5741 16.7978 16.5741 16.752 16.5741L16.752 21.548C16.752 21.8074 16.6757 21.8989 16.4011 21.8989C15.7603 21.8989 15.1347 21.8989 14.4939 21.8989C14.265 21.8989 14.1735 21.8074 14.1735 21.5785C14.1735 19.9765 14.1735 16.6351 14.1735 16.5893Z" fill="#F2F2F2"/>
</svg>
