<svg width="31" height="31" viewBox="0 0 31 31" fill="none" xmlns="http://www.w3.org/2000/svg">
<rect x="0.0801392" width="30.3529" height="30.3529" rx="6" fill="#503217"/>
<g clip-path="url(#clip0_0_417)">
<path d="M21.9883 12.1595C21.9559 11.4248 21.8371 10.9197 21.6669 10.4821C21.4913 10.0175 21.2212 9.60153 20.8673 9.25576C20.5215 8.9046 20.1028 8.63174 19.6436 8.4589C19.2034 8.2887 18.701 8.16989 17.9663 8.1375C17.2261 8.10236 16.9911 8.09424 15.1137 8.09424C13.2364 8.09424 13.0014 8.10236 12.264 8.13476C11.5293 8.16715 11.0242 8.28607 10.5866 8.45616C10.1219 8.63174 9.70596 8.90186 9.36019 9.25576C9.00903 9.60153 8.73627 10.0202 8.56333 10.4794C8.39313 10.9197 8.27432 11.4221 8.24193 12.1568C8.20679 12.897 8.19867 13.132 8.19867 15.0093C8.19867 16.8867 8.20679 17.1216 8.23919 17.8591C8.27158 18.5938 8.3905 19.0989 8.56069 19.5366C8.73627 20.0012 9.00903 20.4171 9.36019 20.7629C9.70596 21.114 10.1246 21.3869 10.5839 21.5597C11.0242 21.7299 11.5265 21.8487 12.2613 21.8811C12.9987 21.9136 13.2338 21.9217 15.1111 21.9217C16.9884 21.9217 17.2234 21.9136 17.9609 21.8811C18.6956 21.8487 19.2007 21.7299 19.6383 21.5597C20.5675 21.2005 21.3022 20.4657 21.6615 19.5366C21.8316 19.0963 21.9505 18.5938 21.9829 17.8591C22.0153 17.1216 22.0234 16.8867 22.0234 15.0093C22.0234 13.132 22.0207 12.897 21.9883 12.1595ZM20.7431 17.8051C20.7134 18.4804 20.5999 18.845 20.5054 19.0881C20.273 19.6905 19.795 20.1686 19.1926 20.401C18.9495 20.4955 18.5822 20.6089 17.9095 20.6386C17.1802 20.6711 16.9614 20.6791 15.1165 20.6791C13.2715 20.6791 13.0501 20.6711 12.3234 20.6386C11.6481 20.6089 11.2834 20.4955 11.0403 20.401C10.7405 20.2902 10.4677 20.1146 10.2462 19.885C10.0166 19.6608 9.84102 19.3906 9.73023 19.0909C9.63569 18.8478 9.52226 18.4804 9.49261 17.8078C9.46011 17.0785 9.45209 16.8596 9.45209 15.0147C9.45209 13.1698 9.46011 12.9483 9.49261 12.2217C9.52226 11.5464 9.63569 11.1817 9.73023 10.9386C9.84102 10.6387 10.0166 10.366 10.2489 10.1444C10.4731 9.91481 10.7432 9.73923 11.0431 9.62854C11.2862 9.534 11.6536 9.42057 12.3261 9.39082C13.0555 9.35842 13.2743 9.3503 15.1191 9.3503C16.9668 9.3503 17.1855 9.35842 17.9122 9.39082C18.5875 9.42057 18.9522 9.534 19.1953 9.62854C19.4951 9.73923 19.7679 9.91481 19.9894 10.1444C20.219 10.3686 20.3946 10.6387 20.5054 10.9386C20.5999 11.1817 20.7134 11.549 20.7431 12.2217C20.7755 12.951 20.7836 13.1698 20.7836 15.0147C20.7836 16.8596 20.7755 17.0757 20.7431 17.8051Z" fill="#F2F2F2"/>
<path d="M15.1136 11.4573C13.1526 11.4573 11.5615 13.0482 11.5615 15.0094C11.5615 16.9705 13.1526 18.5614 15.1136 18.5614C17.0747 18.5614 18.6657 16.9705 18.6657 15.0094C18.6657 13.0482 17.0747 11.4573 15.1136 11.4573ZM15.1136 17.3135C13.8414 17.3135 12.8095 16.2817 12.8095 15.0094C12.8095 13.737 13.8414 12.7052 15.1136 12.7052C16.3859 12.7052 17.4177 13.737 17.4177 15.0094C17.4177 16.2817 16.3859 17.3135 15.1136 17.3135Z" fill="#F2F2F2"/>
<path d="M19.5121 11.6889C19.5121 12.1468 19.1407 12.5181 18.6827 12.5181C18.2248 12.5181 17.8535 12.1468 17.8535 11.6889C17.8535 11.2308 18.2248 10.8596 18.6827 10.8596C19.1407 10.8596 19.5121 11.2308 19.5121 11.6889Z" fill="#F2F2F2"/>
</g>
<defs>
<clipPath id="clip0_0_417">
<rect width="13.8275" height="13.8275" fill="white" transform="translate(8.17426 8.09424)"/>
</clipPath>
</defs>
</svg>
