<svg width="31" height="31" viewBox="0 0 31 31" fill="none" xmlns="http://www.w3.org/2000/svg">
<rect x="0.433044" width="30.3529" height="30.3529" rx="6" fill="#503217"/>
<path d="M21.883 10.8671C21.3923 11.0798 20.8852 11.227 20.3454 11.2924C20.9016 10.9653 21.3268 10.4419 21.5231 9.80395C20.9997 10.1147 20.4272 10.3274 19.822 10.4582C19.3313 9.9348 18.628 9.60767 17.8592 9.60767C16.3707 9.60767 15.1767 10.8181 15.1767 12.2902C15.1767 12.5028 15.193 12.6991 15.2421 12.8954C13.0176 12.7973 11.0547 11.7177 9.72983 10.0984C8.78113 11.7995 9.84432 13.2062 10.5477 13.6805C10.1224 13.6805 9.69711 13.5497 9.33726 13.3534C9.33726 14.6783 10.2696 15.7742 11.48 16.0196C11.2183 16.1013 10.6295 16.1504 10.2696 16.0686C10.6131 17.1318 11.6109 17.917 12.7722 17.9333C11.8562 18.653 10.515 19.2255 8.79749 19.0456C9.99154 19.8143 11.3982 20.256 12.9194 20.256C17.8592 20.256 20.5417 16.1668 20.5417 12.6337C20.5417 12.5192 20.5417 12.4047 20.5254 12.2902C21.0815 11.8813 21.5395 11.4069 21.883 10.8671Z" fill="#F2F2F2"/>
</svg>
